<svg preserveAspectRatio="xMidYMid meet" width="100%" height="100%" overflow="visible" viewBox="0 0 108.739 28" fill="none" xmlns="http://www.w3.org/2000/svg">
<g fill="#870ae0">
<path d="M54.0242 21.3126L54.2903 21.3503C55.5499 21.6204 56.0849 23.1112 55.2703 24.1274C55.0095 24.4527 54.6492 24.7982 54.3333 25.0737C50.5453 28.3872 44.776 28.2528 40.9826 25.0253C40.5134 24.6261 39.9838 24.1866 39.8843 23.5427L39.8548 23.3195C39.8575 23.2604 39.8507 23.2013 39.8548 23.1421C39.9193 22.0681 40.9207 21.3126 41.976 21.5559C42.5929 21.6984 42.886 22.1407 43.3511 22.5143C46.0167 24.6664 50.0681 24.6113 52.4729 22.0909C52.5765 21.982 52.6665 21.8597 52.7781 21.7589C53.0684 21.4954 53.4583 21.3355 53.8481 21.3126H54.0242Z"/>
<path d="M107.338 22.1943L107.57 22.2306C108.663 22.4806 109.109 23.7858 108.387 24.6596C108.156 24.9392 107.837 25.2349 107.56 25.4715C104.223 28.3078 99.2033 28.1196 95.9422 25.2618C95.5389 24.9096 95.0833 24.5198 95.0053 23.9579L94.9824 23.7643C94.9851 23.7132 94.9811 23.6608 94.9851 23.6111C95.055 22.6769 95.9355 22.0316 96.8509 22.2561C97.3859 22.3878 97.6359 22.7763 98.0352 23.1083C100.328 25.0144 103.854 25.0171 105.978 22.8529C106.07 22.7602 106.149 22.654 106.247 22.568C106.502 22.3421 106.844 22.2091 107.184 22.1929L107.338 22.1943Z"/>
<path d="M47.7291 5.89568C43.2166 5.89568 39.5617 9.5533 39.5617 14.0631C39.5617 18.573 43.2193 22.2306 47.7291 22.2306C52.239 22.2306 55.8966 18.573 55.8966 14.0631C55.8966 9.55195 52.239 5.89568 47.7291 5.89568ZM47.7291 18.7921C45.1348 18.7921 43.0324 16.6897 43.0324 14.0954C43.0324 11.5011 45.1348 9.39871 47.7291 9.39871C50.3235 9.39871 52.4258 11.5011 52.4258 14.0954C52.4258 16.6897 50.3248 18.7921 47.7291 18.7921Z"/>
<path d="M8.1715 5.89703C8.17016 5.89703 8.17016 5.89703 8.16881 5.89569C8.16881 5.89569 8.16747 5.89435 8.16613 5.89435C4.30688 5.89435 1.07537 8.57203 0.223139 12.1692C0.205664 12.2431 0.186846 12.317 0.17206 12.3923C0.0645223 12.9085 0.00671962 13.4435 0.00268696 13.9933C0.00268696 13.9933 0.0026877 13.9946 0.00134348 13.9946C0.00134348 13.9946 0 13.9946 0 13.9959V25.3049V26.2633C0 27.2217 0.776958 28 1.73673 28C1.81201 28 1.88459 27.9946 1.95718 27.9852C2.8121 27.8763 3.47346 27.1478 3.47346 26.2633V25.3049C3.47346 25.2928 3.47346 25.2807 3.47212 25.2686V21.0786C3.47212 20.9375 3.63073 20.8555 3.74903 20.9321C5.02469 21.7548 6.53962 22.2333 8.17016 22.2333C12.6827 22.2333 16.3376 18.5757 16.3376 14.0658C16.3376 9.55465 12.6814 5.89703 8.1715 5.89703ZM12.7056 15.3415C12.3413 16.761 10.8653 18.2477 9.44717 18.6227C6.88643 19.3002 4.5327 17.8659 3.74768 15.6856C3.5689 15.1896 3.47077 14.6546 3.47077 14.0941C3.47077 13.5335 3.5689 13.0012 3.74768 12.5025C4.39963 10.6919 6.13098 9.39604 8.16881 9.39604C11.1691 9.39738 13.5107 12.2095 12.7056 15.3415Z"/>
<path d="M35.1701 7.49937C30.4949 3.72884 23.9284 7.03831 23.9284 12.9502V20.3904C23.9284 21.3099 24.6731 22.0546 25.5925 22.0546H26.0106C26.93 22.0546 27.6747 21.3099 27.6747 20.3904V12.0993C27.9086 10.5669 29.1991 9.41622 30.7059 9.35977C32.2948 9.29928 33.721 10.4701 33.9764 12.0872C33.9764 14.8415 33.9764 17.5971 33.9764 20.3514V20.3904V20.4294C33.9764 21.3273 34.7036 22.0546 35.6016 22.0546H35.9255C36.8235 22.0546 37.5507 21.3273 37.5507 20.4294V20.3904V20.3514V12.0993C37.552 10.5413 36.3718 8.4672 35.1701 7.49937Z"/>
<path d="M20.0409 5.89568H20.0557C21.1109 5.89568 21.9659 6.7506 21.9659 7.80582V20.1444C21.9659 21.1996 21.1109 22.0545 20.0557 22.0545H20.0409C18.9857 22.0545 18.1308 21.1996 18.1308 20.1444V7.80582C18.1308 6.7506 18.9857 5.89568 20.0409 5.89568Z"/>
<path d="M20.0476 4.10256C21.1805 4.10256 22.0989 3.18417 22.0989 2.05128C22.0989 0.918389 21.1805 0 20.0476 0C18.9148 0 17.9964 0.918389 17.9964 2.05128C17.9964 3.18417 18.9148 4.10256 20.0476 4.10256Z"/>
<path d="M66.9595 5.89703C66.9582 5.89703 66.9582 5.89703 66.9569 5.89569C66.9569 5.89569 66.9555 5.89435 66.9542 5.89435C63.0949 5.89435 59.8634 8.57203 59.0112 12.1692C58.9937 12.2431 58.9749 12.317 58.9601 12.3923C58.8526 12.9085 58.7948 13.4435 58.7907 13.9933C58.7907 13.9933 58.7907 13.9946 58.7894 13.9946C58.7894 13.9946 58.788 13.9946 58.788 13.9959V25.3049V26.2633C58.788 27.2217 59.565 28 60.5248 28C60.6001 28 60.6726 27.9946 60.7452 27.9852C61.6002 27.8763 62.2615 27.1478 62.2615 26.2633V25.3049C62.2615 25.2928 62.2615 25.2807 62.2602 25.2686V21.0786C62.2602 20.9375 62.4188 20.8555 62.5371 20.9321C63.8127 21.7548 65.3277 22.2333 66.9582 22.2333C71.4707 22.2333 75.1257 18.5757 75.1257 14.0658C75.1257 9.55465 71.4681 5.89703 66.9595 5.89703ZM71.4936 15.3415C71.1293 16.761 69.6534 18.2477 68.2352 18.6227C65.6745 19.3002 63.3208 17.8659 62.5357 15.6856C62.3569 15.1896 62.2588 14.6546 62.2588 14.0941C62.2588 13.5335 62.3569 13.0012 62.5357 12.5025C63.1877 10.6919 64.919 9.39604 66.9569 9.39604C69.9558 9.39738 72.2988 12.2095 71.4936 15.3415Z"/>
<path d="M106.844 5.8877C105.88 5.8877 105.096 6.64585 105.048 7.59755V7.77902V14.5028C105.048 17.1617 103.775 18.5852 101.827 18.5852C99.8795 18.5852 98.6428 17.1993 98.6428 14.5028V7.68896C98.6428 6.69424 97.8362 5.88905 96.8429 5.88905C95.8791 5.88905 95.0954 6.64719 95.047 7.5989V7.78037V14.5041C95.047 17.0514 95.7218 18.9616 97.0324 20.1969C98.3807 21.4336 99.991 22.0318 101.826 22.0318C103.661 22.0318 105.271 21.3946 106.619 20.1593C107.968 18.9239 108.641 17.0125 108.641 14.5041V7.69031C108.644 6.69424 107.839 5.8877 106.844 5.8877Z"/>
<path d="M90.8934 8.10558C89.283 6.64442 87.3339 5.89435 85.124 5.89435C82.8375 5.89435 80.8897 6.68071 79.278 8.29243C77.7039 9.90415 76.9175 11.8143 76.9175 14.0632C76.9175 16.3483 77.7039 18.2598 79.278 19.8715C80.8521 21.4456 82.7998 22.232 85.124 22.232C86.8849 22.232 88.7211 21.4819 89.1701 21.1821C89.4241 21.0007 89.6056 20.8904 89.7185 20.7816C89.7225 20.7775 89.7279 20.7735 89.732 20.7695V20.8165C89.9618 21.4738 90.5506 21.9618 91.2657 22.0424H91.4647H91.5897C91.7066 22.0384 91.8195 22.0223 91.9284 21.9981C91.9432 21.994 91.958 21.9914 91.9728 21.9873C91.9983 21.9806 92.0239 21.9725 92.0494 21.9658C92.7914 21.7252 93.3291 21.0289 93.3291 20.2049V14.1747C93.3291 11.5898 92.5051 9.56675 90.8934 8.10558ZM85.124 18.784C82.5377 18.784 80.5147 16.7986 80.5147 14.0632C80.5147 11.3653 82.5377 9.34226 85.124 9.34226C87.7842 9.34226 89.732 11.3653 89.732 14.0632C89.732 16.7986 87.7089 18.784 85.124 18.784Z"/>
</g>
</svg>
