<svg preserveAspectRatio="xMidYMid meet" width="100%" height="100%" overflow="visible" viewBox="0 0 77 40" fill="none" xmlns="http://www.w3.org/2000/svg">
<path d="M38.373 29.5135C38.3754 29.5181 38.38 29.5205 38.3824 29.5251C38.38 29.5181 38.3777 29.5158 38.373 29.5135C38.3754 29.5111 38.3754 29.5111 38.373 29.5135Z" fill="#870ae0"/>
<path d="M56.8188 0.00297682C48.8819 0.00297682 42.9285 5.22655 38.2864 10.6011C38.2804 10.5923 38.2745 10.5863 38.2655 10.5775C38.0833 10.8084 37.8981 11.0394 37.7159 11.2674C36.5091 12.6947 35.3948 14.122 34.3583 15.4457L33.6324 16.3725C33.4084 16.6568 33.1873 16.9411 32.9663 17.2254C32.2076 18.1789 31.4488 19.1294 30.6871 20.0829C30.6931 20.0918 30.702 20.1007 30.708 20.1096C26.7022 25.1673 23.7927 28.1937 20.1753 28.1937C15.6199 28.1937 11.9128 24.5188 11.9128 20.003C11.9128 15.4871 15.6199 11.8123 20.1753 11.8123C23.6732 11.8123 26.511 14.6462 30.3197 19.4078C30.2928 19.3722 30.2629 19.3367 30.236 19.3012C32.7423 16.1208 35.2485 12.9435 37.7547 9.76313C33.2799 4.55436 27.927 2.17557e-05 20.1753 2.17557e-05C9.05109 2.17557e-05 0 8.97248 0 20C0 31.0276 9.05109 40 20.1753 40C30.3017 40 36.3358 32.2328 41.6619 25.3776C42.113 24.7972 42.567 24.2138 43.027 23.6275L43.7708 22.6799C47.5615 17.8354 52.2813 11.8064 56.8217 11.8064C61.3772 11.8064 65.0842 15.4812 65.0842 19.9971C65.0842 24.5129 61.3772 28.1878 56.8217 28.1878C53.6942 28.1878 50.483 25.3272 47.5466 21.9633C47.5496 21.9603 47.5496 21.9603 47.5526 21.9574C47.2061 21.5487 46.8626 21.1371 46.516 20.7285C46.5131 20.7314 46.5101 20.7344 46.5101 20.7374C44.0068 23.8911 41.5036 27.0418 39.0004 30.1955C38.9974 30.1984 38.9974 30.1984 38.9944 30.2014C39.2244 30.459 39.4604 30.7166 39.6964 30.9713C39.7173 30.992 39.7352 31.0157 39.7561 31.0364C44.1711 35.7862 49.6974 39.9971 56.8247 39.9971C67.9489 39.9971 77 31.0246 77 19.9971C77 8.96952 67.9459 0.00297682 56.8188 0.00297682Z" fill="#870ae0"/>
</svg>
